<!DOCTYPE svg PUBLIC "-//W3C//DTD SVG 1.1//EN" "http://www.w3.org/Graphics/SVG/1.1/DTD/svg11.dtd">
<!-- Uploaded to: SVG Repo, www.svgrepo.com, Transformed by: SVG Repo Mixer Tools -->
<svg fill="#ffffff" width="800px" height="800px" viewBox="-1.44 -1.44 26.88 26.88" xmlns="http://www.w3.org/2000/svg" stroke="#ffffff" stroke-width="0.00024000000000000003" transform="rotate(0)">
<g id="SVGRepo_bgCarrier" stroke-width="0" transform="translate(0,0), scale(1)">
<rect x="-1.44" y="-1.44" width="26.88" height="26.88" rx="4.3008" fill="#bf4a61" strokewidth="0"/>
</g>
<g id="SVGRepo_tracerCarrier" stroke-linecap="round" stroke-linejoin="round" stroke="#CCCCCC" stroke-width="0.048"/>
<g id="SVGRepo_iconCarrier"> <path fill-rule="evenodd" d="M21,14 L19,14 L19,10 L21,10 L21,14 Z M17,16 L15,16 L15,8 L17,8 L17,16 Z M13,19 L11,19 L11,5 L13,5 L13,19 Z M9,16 L7,16 L7,8 L9,8 L9,16 Z M5,14 L3,14 L3,10 L5,10 L5,14 Z"/> </g>
</svg>